<mxfile host="app.diagrams.net" modified="2022-11-16T03:40:19.331Z" agent="5.0 (Windows NT 10.0; Win64; x64) AppleWebKit/537.36 (KHTML, like Gecko) Chrome/107.0.0.0 Safari/537.36 Edg/107.0.1418.42" etag="zN78zcY2GXVLc8cP7o8i" version="20.5.3" type="github">
  <diagram id="AhnOpRhV6lnkODjUMpa0" name="Page-1">
    <mxGraphModel dx="948" dy="548" grid="1" gridSize="11" guides="1" tooltips="1" connect="1" arrows="1" fold="1" page="1" pageScale="1" pageWidth="850" pageHeight="1100" math="0" shadow="1">
      <root>
        <mxCell id="0" />
        <mxCell id="1" parent="0" />
        <mxCell id="9DdzNbev5yr624p6ZmV5-5" value="action" style="ellipse;whiteSpace=wrap;html=1;hachureGap=4;jiggle=2;strokeColor=#006658;fontFamily=Architects Daughter;fontSource=https%3A%2F%2Ffonts.googleapis.com%2Fcss%3Ffamily%3DArchitects%2BDaughter;fontSize=20;fontColor=#5C5C5C;fillColor=#21C0A5;sketch=1;rounded=1;" vertex="1" parent="1">
          <mxGeometry x="365" y="165" width="120" height="80" as="geometry" />
        </mxCell>
        <mxCell id="9DdzNbev5yr624p6ZmV5-6" value="" style="shape=flexArrow;endArrow=classic;html=1;rounded=1;hachureGap=4;jiggle=2;strokeColor=#006658;fontFamily=Architects Daughter;fontSource=https%3A%2F%2Ffonts.googleapis.com%2Fcss%3Ffamily%3DArchitects%2BDaughter;fontSize=16;fontColor=#5C5C5C;fillColor=#21C0A5;exitX=0;exitY=0.713;exitDx=0;exitDy=0;exitPerimeter=0;entryX=0.633;entryY=-0.028;entryDx=0;entryDy=0;entryPerimeter=0;sketch=1;curved=1;" edge="1" parent="1" source="9DdzNbev5yr624p6ZmV5-5" target="9DdzNbev5yr624p6ZmV5-7">
          <mxGeometry width="50" height="50" relative="1" as="geometry">
            <mxPoint x="400" y="310" as="sourcePoint" />
            <mxPoint x="210" y="170" as="targetPoint" />
            <Array as="points">
              <mxPoint x="308" y="231" />
            </Array>
          </mxGeometry>
        </mxCell>
        <mxCell id="9DdzNbev5yr624p6ZmV5-7" value="Build" style="ellipse;whiteSpace=wrap;html=1;hachureGap=4;jiggle=2;strokeColor=#006658;fontFamily=Architects Daughter;fontSource=https%3A%2F%2Ffonts.googleapis.com%2Fcss%3Ffamily%3DArchitects%2BDaughter;fontSize=20;fontColor=#5C5C5C;fillColor=#21C0A5;sketch=1;rounded=1;" vertex="1" parent="1">
          <mxGeometry x="165" y="385" width="120" height="80" as="geometry" />
        </mxCell>
        <mxCell id="9DdzNbev5yr624p6ZmV5-10" value="" style="shape=flexArrow;endArrow=classic;html=1;rounded=1;hachureGap=4;jiggle=2;strokeColor=#006658;fontFamily=Architects Daughter;fontSource=https%3A%2F%2Ffonts.googleapis.com%2Fcss%3Ffamily%3DArchitects%2BDaughter;fontSize=16;fontColor=#5C5C5C;fillColor=#21C0A5;entryX=0.5;entryY=0;entryDx=0;entryDy=0;exitX=0.992;exitY=0.688;exitDx=0;exitDy=0;exitPerimeter=0;sketch=1;curved=1;" edge="1" parent="1" source="9DdzNbev5yr624p6ZmV5-5" target="9DdzNbev5yr624p6ZmV5-11">
          <mxGeometry width="50" height="50" relative="1" as="geometry">
            <mxPoint x="415" y="109.99999999999996" as="sourcePoint" />
            <mxPoint x="260" y="192.96" as="targetPoint" />
            <Array as="points">
              <mxPoint x="572" y="242" />
            </Array>
          </mxGeometry>
        </mxCell>
        <mxCell id="9DdzNbev5yr624p6ZmV5-11" value="Query" style="ellipse;whiteSpace=wrap;html=1;hachureGap=4;jiggle=2;strokeColor=#006658;fontFamily=Architects Daughter;fontSource=https%3A%2F%2Ffonts.googleapis.com%2Fcss%3Ffamily%3DArchitects%2BDaughter;fontSize=20;fontColor=#5C5C5C;fillColor=#21C0A5;sketch=1;rounded=1;" vertex="1" parent="1">
          <mxGeometry x="594" y="396" width="120" height="80" as="geometry" />
        </mxCell>
        <mxCell id="9DdzNbev5yr624p6ZmV5-12" value="" style="shape=flexArrow;endArrow=classic;html=1;rounded=1;hachureGap=4;jiggle=2;strokeColor=#006658;fontFamily=Architects Daughter;fontSource=https%3A%2F%2Ffonts.googleapis.com%2Fcss%3Ffamily%3DArchitects%2BDaughter;fontSize=16;fontColor=#5C5C5C;fillColor=#21C0A5;exitX=0.5;exitY=0;exitDx=0;exitDy=0;entryX=0.458;entryY=0.963;entryDx=0;entryDy=0;entryPerimeter=0;sketch=1;curved=1;" edge="1" parent="1" target="9DdzNbev5yr624p6ZmV5-13" source="9DdzNbev5yr624p6ZmV5-5">
          <mxGeometry width="50" height="50" relative="1" as="geometry">
            <mxPoint x="489" y="66" as="sourcePoint" />
            <mxPoint x="324" y="148.96" as="targetPoint" />
            <Array as="points">
              <mxPoint x="451" y="110" />
            </Array>
          </mxGeometry>
        </mxCell>
        <mxCell id="9DdzNbev5yr624p6ZmV5-13" value="validation" style="ellipse;whiteSpace=wrap;html=1;hachureGap=4;jiggle=2;strokeColor=#006658;fontFamily=Architects Daughter;fontSource=https%3A%2F%2Ffonts.googleapis.com%2Fcss%3Ffamily%3DArchitects%2BDaughter;fontSize=20;fontColor=#5C5C5C;fillColor=#21C0A5;sketch=1;rounded=1;" vertex="1" parent="1">
          <mxGeometry x="396" y="33" width="120" height="80" as="geometry" />
        </mxCell>
        <mxCell id="9DdzNbev5yr624p6ZmV5-14" value="这部分代码我还没看" style="whiteSpace=wrap;html=1;rounded=1;arcSize=50;align=center;verticalAlign=middle;strokeWidth=1;autosize=1;spacing=4;treeFolding=1;treeMoving=1;newEdgeStyle={&quot;edgeStyle&quot;:&quot;entityRelationEdgeStyle&quot;,&quot;startArrow&quot;:&quot;none&quot;,&quot;endArrow&quot;:&quot;none&quot;,&quot;segment&quot;:10,&quot;curved&quot;:1};hachureGap=4;jiggle=2;strokeColor=#006658;fontFamily=Architects Daughter;fontSource=https%3A%2F%2Ffonts.googleapis.com%2Fcss%3Ffamily%3DArchitects%2BDaughter;fontSize=20;fontColor=#5C5C5C;fillColor=#21C0A5;sketch=1;" vertex="1" parent="1">
          <mxGeometry x="550" y="22" width="231" height="44" as="geometry" />
        </mxCell>
        <mxCell id="9DdzNbev5yr624p6ZmV5-15" value="" style="edgeStyle=entityRelationEdgeStyle;startArrow=none;endArrow=none;segment=10;rounded=1;hachureGap=4;jiggle=2;strokeColor=#006658;fontFamily=Architects Daughter;fontSource=https%3A%2F%2Ffonts.googleapis.com%2Fcss%3Ffamily%3DArchitects%2BDaughter;fontSize=16;fontColor=#5C5C5C;fillColor=#21C0A5;sketch=1;curved=1;" edge="1" target="9DdzNbev5yr624p6ZmV5-14" parent="1">
          <mxGeometry relative="1" as="geometry">
            <mxPoint x="516" y="73" as="sourcePoint" />
          </mxGeometry>
        </mxCell>
      </root>
    </mxGraphModel>
  </diagram>
</mxfile>
